<svg width="32" height="24" viewBox="0 0 32 24" fill="none" xmlns="http://www.w3.org/2000/svg">
<path d="M11.6364 6C12.4079 6 13.1478 5.68393 13.6934 5.12132C14.239 4.55871 14.5455 3.79565 14.5455 3C14.5455 2.20435 14.239 1.44129 13.6934 0.87868C13.1478 0.316071 12.4079 0 11.6364 0C10.8648 0 10.1249 0.316071 9.57933 0.87868C9.03377 1.44129 8.72727 2.20435 8.72727 3C8.72727 3.79565 9.03377 4.55871 9.57933 5.12132C10.1249 5.68393 10.8648 6 11.6364 6ZM20.3636 6C21.1352 6 21.8751 5.68393 22.4207 5.12132C22.9662 4.55871 23.2727 3.79565 23.2727 3C23.2727 2.20435 22.9662 1.44129 22.4207 0.87868C21.8751 0.316071 21.1352 0 20.3636 0C19.5921 0 18.8522 0.316071 18.3066 0.87868C17.761 1.44129 17.4545 2.20435 17.4545 3C17.4545 3.79565 17.761 4.55871 18.3066 5.12132C18.8522 5.68393 19.5921 6 20.3636 6ZM29.0909 6C29.8624 6 30.6024 5.68393 31.1479 5.12132C31.6935 4.55871 32 3.79565 32 3C32 2.20435 31.6935 1.44129 31.1479 0.87868C30.6024 0.316071 29.8624 0 29.0909 0C28.3194 0 27.5794 0.316071 27.0339 0.87868C26.4883 1.44129 26.1818 2.20435 26.1818 3C26.1818 3.79565 26.4883 4.55871 27.0339 5.12132C27.5794 5.68393 28.3194 6 29.0909 6ZM2.90909 15C3.68063 15 4.42057 14.6839 4.96613 14.1213C5.51169 13.5587 5.81818 12.7956 5.81818 12C5.81818 11.2044 5.51169 10.4413 4.96613 9.87868C4.42057 9.31607 3.68063 9 2.90909 9C2.13755 9 1.39761 9.31607 0.852053 9.87868C0.306493 10.4413 0 11.2044 0 12C0 12.7956 0.306493 13.5587 0.852053 14.1213C1.39761 14.6839 2.13755 15 2.90909 15ZM11.6364 15C12.4079 15 13.1478 14.6839 13.6934 14.1213C14.239 13.5587 14.5455 12.7956 14.5455 12C14.5455 11.2044 14.239 10.4413 13.6934 9.87868C13.1478 9.31607 12.4079 9 11.6364 9C10.8648 9 10.1249 9.31607 9.57933 9.87868C9.03377 10.4413 8.72727 11.2044 8.72727 12C8.72727 12.7956 9.03377 13.5587 9.57933 14.1213C10.1249 14.6839 10.8648 15 11.6364 15ZM20.3636 15C21.1352 15 21.8751 14.6839 22.4207 14.1213C22.9662 13.5587 23.2727 12.7956 23.2727 12C23.2727 11.2044 22.9662 10.4413 22.4207 9.87868C21.8751 9.31607 21.1352 9 20.3636 9C19.5921 9 18.8522 9.31607 18.3066 9.87868C17.761 10.4413 17.4545 11.2044 17.4545 12C17.4545 12.7956 17.761 13.5587 18.3066 14.1213C18.8522 14.6839 19.5921 15 20.3636 15ZM29.0909 15C29.8624 15 30.6024 14.6839 31.1479 14.1213C31.6935 13.5587 32 12.7956 32 12C32 11.2044 31.6935 10.4413 31.1479 9.87868C30.6024 9.31607 29.8624 9 29.0909 9C28.3194 9 27.5794 9.31607 27.0339 9.87868C26.4883 10.4413 26.1818 11.2044 26.1818 12C26.1818 12.7956 26.4883 13.5587 27.0339 14.1213C27.5794 14.6839 28.3194 15 29.0909 15ZM2.90909 24C3.68063 24 4.42057 23.6839 4.96613 23.1213C5.51169 22.5587 5.81818 21.7956 5.81818 21C5.81818 20.2044 5.51169 19.4413 4.96613 18.8787C4.42057 18.3161 3.68063 18 2.90909 18C2.13755 18 1.39761 18.3161 0.852053 18.8787C0.306493 19.4413 0 20.2044 0 21C0 21.7956 0.306493 22.5587 0.852053 23.1213C1.39761 23.6839 2.13755 24 2.90909 24ZM11.6364 24C12.4079 24 13.1478 23.6839 13.6934 23.1213C14.239 22.5587 14.5455 21.7956 14.5455 21C14.5455 20.2044 14.239 19.4413 13.6934 18.8787C13.1478 18.3161 12.4079 18 11.6364 18C10.8648 18 10.1249 18.3161 9.57933 18.8787C9.03377 19.4413 8.72727 20.2044 8.72727 21C8.72727 21.7956 9.03377 22.5587 9.57933 23.1213C10.1249 23.6839 10.8648 24 11.6364 24ZM20.3636 24C21.1352 24 21.8751 23.6839 22.4207 23.1213C22.9662 22.5587 23.2727 21.7956 23.2727 21C23.2727 20.2044 22.9662 19.4413 22.4207 18.8787C21.8751 18.3161 21.1352 18 20.3636 18C19.5921 18 18.8522 18.3161 18.3066 18.8787C17.761 19.4413 17.4545 20.2044 17.4545 21C17.4545 21.7956 17.761 22.5587 18.3066 23.1213C18.8522 23.6839 19.5921 24 20.3636 24Z" fill="white"/>
</svg>
