<svg width="101" height="113" viewBox="0 0 101 113" fill="none" xmlns="http://www.w3.org/2000/svg">
<path d="M99.625 78.3332V34.6665C99.623 32.7522 99.1177 30.872 98.1597 29.2146C97.2016 27.5571 95.8246 26.1808 94.1667 25.2236L55.9583 3.39029C54.2988 2.43215 52.4163 1.92773 50.5 1.92773C48.5837 1.92773 46.7012 2.43215 45.0417 3.39029L6.83333 25.2236C5.17543 26.1808 3.79839 27.5571 2.84035 29.2146C1.88231 30.872 1.37696 32.7522 1.375 34.6665V78.3332C1.37696 80.2476 1.88231 82.1278 2.84035 83.7852C3.79839 85.4426 5.17543 86.8189 6.83333 87.7761L45.0417 109.609C46.7012 110.568 48.5837 111.072 50.5 111.072C52.4163 111.072 54.2988 110.568 55.9583 109.609L94.1667 87.7761C95.8246 86.8189 97.2016 85.4426 98.1597 83.7852C99.1177 82.1278 99.623 80.2476 99.625 78.3332Z" fill="white" stroke="#3A4151" stroke-width="2" stroke-linecap="round" stroke-linejoin="round"/>
</svg>
