<svg width="20" height="20" viewBox="0 0 20 20" fill="none" xmlns="http://www.w3.org/2000/svg">
<path d="M4.99967 1.6665H12.4997C12.9417 1.6665 13.3656 1.8421 13.6782 2.15466C13.9907 2.46722 14.1663 2.89114 14.1663 3.33317V4.99984H12.4997V3.33317H4.99967V16.6665H12.4997V14.9998H14.1663V16.6665C14.1663 17.1085 13.9907 17.5325 13.6782 17.845C13.3656 18.1576 12.9417 18.3332 12.4997 18.3332H4.99967C4.55765 18.3332 4.13372 18.1576 3.82116 17.845C3.5086 17.5325 3.33301 17.1085 3.33301 16.6665V3.33317C3.33301 2.89114 3.5086 2.46722 3.82116 2.15466C4.13372 1.8421 4.55765 1.6665 4.99967 1.6665Z" fill="white"/>
<path d="M13.4083 12.9918L14.5833 14.1668L18.75 10.0002L14.5833 5.8335L13.4083 7.0085L15.5583 9.16683H7.5V10.8335H15.5583L13.4083 12.9918Z" fill="white"/>
</svg>
