<svg width="51" height="41" viewBox="0 0 51 41" fill="none" xmlns="http://www.w3.org/2000/svg">
<path d="M37.4002 20.79C37.4002 23.6205 35.1168 25.915 32.3002 25.915C29.4835 25.915 27.2002 23.6205 27.2002 20.79C27.2002 17.9596 29.4835 15.665 32.3002 15.665C35.1168 15.665 37.4002 17.9596 37.4002 20.79Z" fill="#3A4151"/>
<path d="M50.9998 20.5C50.9998 23.3305 48.7165 25.625 45.8998 25.625C43.0832 25.625 40.7998 23.3305 40.7998 20.5C40.7998 17.6695 43.0832 15.375 45.8998 15.375C48.7165 15.375 50.9998 17.6695 50.9998 20.5Z" fill="#3A4151"/>
<path d="M10.2 35.875C10.2 38.7055 7.91665 41 5.1 41C2.28335 41 0 38.7055 0 35.875C0 33.0445 2.28335 30.75 5.1 30.75C7.91665 30.75 10.2 33.0445 10.2 35.875Z" fill="#3A4151"/>
<path d="M23.7996 35.875C23.7996 38.7055 21.5163 41 18.6996 41C15.883 41 13.5996 38.7055 13.5996 35.875C13.5996 33.0445 15.883 30.75 18.6996 30.75C21.5163 30.75 23.7996 33.0445 23.7996 35.875Z" fill="#3A4151"/>
<path d="M37.4002 35.875C37.4002 38.7055 35.1168 41 32.3002 41C29.4835 41 27.2002 38.7055 27.2002 35.875C27.2002 33.0445 29.4835 30.75 32.3002 30.75C35.1168 30.75 37.4002 33.0445 37.4002 35.875Z" fill="#3A4151"/>
<path d="M23.7996 5.125C23.7996 7.95546 21.5163 10.25 18.6996 10.25C15.883 10.25 13.5996 7.95546 13.5996 5.125C13.5996 2.29454 15.883 0 18.6996 0C21.5163 0 23.7996 2.29454 23.7996 5.125Z" fill="#3A4151"/>
<path d="M37.4002 5.125C37.4002 7.95546 35.1168 10.25 32.3002 10.25C29.4835 10.25 27.2002 7.95546 27.2002 5.125C27.2002 2.29454 29.4835 0 32.3002 0C35.1168 0 37.4002 2.29454 37.4002 5.125Z" fill="#3A4151"/>
<path d="M50.9998 5.125C50.9998 7.95546 48.7165 10.25 45.8998 10.25C43.0832 10.25 40.7998 7.95546 40.7998 5.125C40.7998 2.29454 43.0832 0 45.8998 0C48.7165 0 50.9998 2.29454 50.9998 5.125Z" fill="#3A4151"/>
<path d="M10.2 20.5C10.2 23.3305 7.91665 25.625 5.1 25.625C2.28335 25.625 0 23.3305 0 20.5C0 17.6695 2.28335 15.375 5.1 15.375C7.91665 15.375 10.2 17.6695 10.2 20.5Z" fill="#3A4151"/>
<path d="M23.7996 20.5C23.7996 23.3305 21.5163 25.625 18.6996 25.625C15.883 25.625 13.5996 23.3305 13.5996 20.5C13.5996 17.6695 15.883 15.375 18.6996 15.375C21.5163 15.375 23.7996 17.6695 23.7996 20.5Z" fill="white"/>
</svg>
